<svg width="162" height="24" viewBox="0 0 162 24" fill="none" xmlns="http://www.w3.org/2000/svg">
<g clip-path="url(#clip0_1_230)">
<path d="M19 9L20.25 6.25L23 5L20.25 3.75L19 1L17.75 3.75L15 5L17.75 6.25L19 9Z" fill="#464646"/>
<path d="M19 15L17.75 17.75L15 19L17.75 20.25L19 23L20.25 20.25L23 19L20.25 17.75L19 15Z" fill="#464646"/>
<path d="M11.5 9.5L9 4L6.5 9.5L1 12L6.5 14.5L9 20L11.5 14.5L17 12L11.5 9.5ZM9.99 12.99L9 15.17L8.01 12.99L5.83 12L8.01 11.01L9 8.83L9.99 11.01L12.17 12L9.99 12.99Z" fill="#464646"/>
</g>
<path d="M33.184 17.5V6.14H35.392V15.564H41.184V17.5H33.184ZM42.3198 17.5V9.116H44.4638V17.5H42.3198ZM42.3198 7.948V5.82H44.4638V7.948H42.3198ZM46.3819 5.82H48.5259V14.812C48.5259 15.196 48.5899 15.4573 48.7179 15.596C48.8459 15.724 49.0219 15.788 49.2459 15.788C49.4165 15.788 49.5925 15.7667 49.7739 15.724C49.9552 15.6813 50.1152 15.628 50.2539 15.564L50.5419 17.196C50.2539 17.3347 49.9179 17.4413 49.5339 17.516C49.1499 17.5907 48.8032 17.628 48.4939 17.628C47.8219 17.628 47.2992 17.452 46.9259 17.1C46.5632 16.7373 46.3819 16.2253 46.3819 15.564V5.82ZM51.476 17.5V9.116H53.62V17.5H51.476ZM51.476 7.948V5.82H53.62V7.948H51.476ZM59.4421 17.66C58.7701 17.66 58.1621 17.548 57.6181 17.324C57.0741 17.0893 56.6101 16.7747 56.2261 16.38C55.8421 15.9747 55.5435 15.516 55.3301 15.004C55.1275 14.4813 55.0261 13.932 55.0261 13.356C55.0261 12.556 55.2021 11.8253 55.5541 11.164C55.9168 10.5027 56.4288 9.97467 57.0901 9.58C57.7621 9.17467 58.5515 8.972 59.4581 8.972C60.3755 8.972 61.1595 9.17467 61.8101 9.58C62.4608 9.97467 62.9568 10.5027 63.2981 11.164C63.6501 11.8147 63.8261 12.5187 63.8261 13.276C63.8261 13.404 63.8208 13.5373 63.8101 13.676C63.7995 13.804 63.7888 13.9107 63.7781 13.996H57.2981C57.3408 14.4227 57.4635 14.796 57.6661 15.116C57.8795 15.436 58.1461 15.6813 58.4661 15.852C58.7968 16.012 59.1488 16.092 59.5221 16.092C59.9488 16.092 60.3488 15.9907 60.7221 15.788C61.1061 15.5747 61.3675 15.2973 61.5061 14.956L63.3461 15.468C63.1435 15.8947 62.8501 16.2733 62.4661 16.604C62.0928 16.9347 61.6501 17.196 61.1381 17.388C60.6261 17.5693 60.0608 17.66 59.4421 17.66ZM57.2501 12.636H61.6341C61.5915 12.2093 61.4688 11.8413 61.2661 11.532C61.0741 11.212 60.8181 10.9667 60.4981 10.796C60.1781 10.6147 59.8208 10.524 59.4261 10.524C59.0421 10.524 58.6901 10.6147 58.3701 10.796C58.0608 10.9667 57.8048 11.212 57.6021 11.532C57.4101 11.8413 57.2928 12.2093 57.2501 12.636ZM70.0781 17.068C69.8968 17.1427 69.6781 17.228 69.4221 17.324C69.1661 17.42 68.8888 17.4947 68.5901 17.548C68.3021 17.612 68.0088 17.644 67.7101 17.644C67.3155 17.644 66.9528 17.5747 66.6221 17.436C66.2915 17.2973 66.0248 17.0787 65.8221 16.78C65.6301 16.4707 65.5341 16.0707 65.5341 15.58V10.764H64.4301V9.116H65.5341V6.396H67.6781V9.116H69.4381V10.764H67.6781V14.86C67.6888 15.148 67.7688 15.356 67.9181 15.484C68.0675 15.612 68.2541 15.676 68.4781 15.676C68.7021 15.676 68.9208 15.6387 69.1341 15.564C69.3475 15.4893 69.5181 15.4253 69.6461 15.372L70.0781 17.068ZM76.1875 17.068C76.0062 17.1427 75.7875 17.228 75.5315 17.324C75.2755 17.42 74.9982 17.4947 74.6995 17.548C74.4115 17.612 74.1182 17.644 73.8195 17.644C73.4248 17.644 73.0622 17.5747 72.7315 17.436C72.4008 17.2973 72.1342 17.0787 71.9315 16.78C71.7395 16.4707 71.6435 16.0707 71.6435 15.58V10.764H70.5395V9.116H71.6435V6.396H73.7875V9.116H75.5475V10.764H73.7875V14.86C73.7982 15.148 73.8782 15.356 74.0275 15.484C74.1768 15.612 74.3635 15.676 74.5875 15.676C74.8115 15.676 75.0302 15.6387 75.2435 15.564C75.4568 15.4893 75.6275 15.4253 75.7555 15.372L76.1875 17.068ZM81.0984 17.66C80.4264 17.66 79.8184 17.548 79.2744 17.324C78.7304 17.0893 78.2664 16.7747 77.8824 16.38C77.4984 15.9747 77.1997 15.516 76.9864 15.004C76.7837 14.4813 76.6824 13.932 76.6824 13.356C76.6824 12.556 76.8584 11.8253 77.2104 11.164C77.573 10.5027 78.085 9.97467 78.7464 9.58C79.4184 9.17467 80.2077 8.972 81.1144 8.972C82.0317 8.972 82.8157 9.17467 83.4664 9.58C84.117 9.97467 84.613 10.5027 84.9544 11.164C85.3064 11.8147 85.4824 12.5187 85.4824 13.276C85.4824 13.404 85.477 13.5373 85.4664 13.676C85.4557 13.804 85.445 13.9107 85.4344 13.996H78.9544C78.997 14.4227 79.1197 14.796 79.3224 15.116C79.5357 15.436 79.8024 15.6813 80.1224 15.852C80.453 16.012 80.805 16.092 81.1784 16.092C81.605 16.092 82.005 15.9907 82.3784 15.788C82.7624 15.5747 83.0237 15.2973 83.1624 14.956L85.0024 15.468C84.7997 15.8947 84.5064 16.2733 84.1224 16.604C83.749 16.9347 83.3064 17.196 82.7944 17.388C82.2824 17.5693 81.717 17.66 81.0984 17.66ZM78.9064 12.636H83.2904C83.2477 12.2093 83.125 11.8413 82.9224 11.532C82.7304 11.212 82.4744 10.9667 82.1544 10.796C81.8344 10.6147 81.477 10.524 81.0824 10.524C80.6984 10.524 80.3464 10.6147 80.0264 10.796C79.717 10.9667 79.461 11.212 79.2584 11.532C79.0664 11.8413 78.949 12.2093 78.9064 12.636ZM98.8675 8.076H95.2355V17.5H93.0435V8.076H89.4115V6.14H98.8675V8.076ZM104.265 10.972C103.614 10.972 103.033 11.1 102.521 11.356C102.009 11.6013 101.641 11.9587 101.417 12.428V17.5H99.2729V9.116H101.241V10.908C101.54 10.332 101.918 9.87867 102.377 9.548C102.836 9.21733 103.321 9.036 103.833 9.004C103.95 9.004 104.041 9.004 104.105 9.004C104.169 9.004 104.222 9.00933 104.265 9.02V10.972ZM105.46 17.5V9.116H107.604V17.5H105.46ZM105.46 7.948V5.82H107.604V7.948H105.46ZM112.819 17.548C112.264 17.548 111.752 17.4413 111.283 17.228C110.824 17.004 110.424 16.6947 110.083 16.3C109.752 15.9053 109.496 15.452 109.315 14.94C109.133 14.428 109.043 13.884 109.043 13.308C109.043 12.7 109.139 12.1347 109.331 11.612C109.522 11.0893 109.789 10.6307 110.131 10.236C110.483 9.83067 110.893 9.52133 111.363 9.308C111.843 9.084 112.371 8.972 112.947 8.972C113.597 8.972 114.168 9.12133 114.659 9.42C115.149 9.708 115.555 10.0973 115.875 10.588V9.116H117.747V17.1C117.747 17.932 117.544 18.6413 117.139 19.228C116.744 19.8253 116.195 20.2787 115.491 20.588C114.787 20.908 113.987 21.068 113.091 21.068C112.184 21.068 111.416 20.9133 110.787 20.604C110.157 20.3053 109.619 19.8787 109.171 19.324L110.339 18.188C110.659 18.5827 111.059 18.892 111.539 19.116C112.029 19.34 112.547 19.452 113.091 19.452C113.549 19.452 113.965 19.3667 114.339 19.196C114.723 19.036 115.027 18.78 115.251 18.428C115.485 18.0867 115.603 17.644 115.603 17.1V16.044C115.325 16.524 114.931 16.8973 114.419 17.164C113.917 17.42 113.384 17.548 112.819 17.548ZM113.539 15.836C113.773 15.836 113.997 15.7987 114.211 15.724C114.424 15.6493 114.621 15.548 114.803 15.42C114.984 15.292 115.144 15.1427 115.283 14.972C115.421 14.7907 115.528 14.6093 115.603 14.428V12.428C115.475 12.0973 115.293 11.8093 115.059 11.564C114.835 11.3187 114.579 11.132 114.291 11.004C114.013 10.8653 113.72 10.796 113.411 10.796C113.08 10.796 112.781 10.8653 112.515 11.004C112.248 11.1427 112.019 11.34 111.827 11.596C111.635 11.8413 111.485 12.1187 111.379 12.428C111.283 12.7267 111.235 13.0413 111.235 13.372C111.235 13.7133 111.293 14.0333 111.411 14.332C111.528 14.6307 111.688 14.892 111.891 15.116C112.104 15.34 112.349 15.516 112.627 15.644C112.915 15.772 113.219 15.836 113.539 15.836ZM119.599 14.364V9.116H121.743V13.9C121.743 14.54 121.86 15.0253 122.095 15.356C122.33 15.676 122.676 15.836 123.135 15.836C123.412 15.836 123.684 15.7827 123.951 15.676C124.228 15.5587 124.479 15.388 124.703 15.164C124.938 14.94 125.135 14.6573 125.295 14.316V9.116H127.439V15.1C127.439 15.324 127.476 15.484 127.551 15.58C127.636 15.676 127.77 15.7347 127.951 15.756V17.5C127.738 17.532 127.556 17.5533 127.407 17.564C127.268 17.5853 127.14 17.596 127.023 17.596C126.639 17.596 126.324 17.5107 126.079 17.34C125.844 17.1587 125.706 16.9133 125.663 16.604L125.615 15.932C125.242 16.4973 124.762 16.9293 124.175 17.228C123.588 17.516 122.943 17.66 122.239 17.66C121.375 17.66 120.719 17.3827 120.271 16.828C119.823 16.2627 119.599 15.4413 119.599 14.364ZM133.458 17.66C132.786 17.66 132.178 17.548 131.634 17.324C131.09 17.0893 130.626 16.7747 130.242 16.38C129.858 15.9747 129.559 15.516 129.346 15.004C129.143 14.4813 129.042 13.932 129.042 13.356C129.042 12.556 129.218 11.8253 129.57 11.164C129.932 10.5027 130.444 9.97467 131.106 9.58C131.778 9.17467 132.567 8.972 133.474 8.972C134.391 8.972 135.175 9.17467 135.826 9.58C136.476 9.97467 136.972 10.5027 137.314 11.164C137.666 11.8147 137.842 12.5187 137.842 13.276C137.842 13.404 137.836 13.5373 137.826 13.676C137.815 13.804 137.804 13.9107 137.794 13.996H131.314C131.356 14.4227 131.479 14.796 131.682 15.116C131.895 15.436 132.162 15.6813 132.482 15.852C132.812 16.012 133.164 16.092 133.538 16.092C133.964 16.092 134.364 15.9907 134.738 15.788C135.122 15.5747 135.383 15.2973 135.522 14.956L137.362 15.468C137.159 15.8947 136.866 16.2733 136.482 16.604C136.108 16.9347 135.666 17.196 135.154 17.388C134.642 17.5693 134.076 17.66 133.458 17.66ZM131.266 12.636H135.65C135.607 12.2093 135.484 11.8413 135.282 11.532C135.09 11.212 134.834 10.9667 134.514 10.796C134.194 10.6147 133.836 10.524 133.442 10.524C133.058 10.524 132.706 10.6147 132.386 10.796C132.076 10.9667 131.82 11.212 131.618 11.532C131.426 11.8413 131.308 12.2093 131.266 12.636ZM144.14 10.972C143.489 10.972 142.908 11.1 142.396 11.356C141.884 11.6013 141.516 11.9587 141.292 12.428V17.5H139.148V9.116H141.116V10.908C141.415 10.332 141.793 9.87867 142.252 9.548C142.711 9.21733 143.196 9.036 143.708 9.004C143.825 9.004 143.916 9.004 143.98 9.004C144.044 9.004 144.097 9.00933 144.14 9.02V10.972ZM149.098 17.66C148.415 17.66 147.802 17.548 147.258 17.324C146.714 17.0893 146.25 16.7693 145.866 16.364C145.493 15.9587 145.205 15.4947 145.002 14.972C144.799 14.4493 144.698 13.9 144.698 13.324C144.698 12.7373 144.799 12.1827 145.002 11.66C145.205 11.1373 145.493 10.6733 145.866 10.268C146.25 9.86267 146.714 9.548 147.258 9.324C147.802 9.08933 148.415 8.972 149.098 8.972C149.781 8.972 150.389 9.08933 150.922 9.324C151.466 9.548 151.93 9.86267 152.314 10.268C152.698 10.6733 152.986 11.1373 153.178 11.66C153.381 12.1827 153.482 12.7373 153.482 13.324C153.482 13.9 153.381 14.4493 153.178 14.972C152.986 15.4947 152.698 15.9587 152.314 16.364C151.941 16.7693 151.482 17.0893 150.938 17.324C150.394 17.548 149.781 17.66 149.098 17.66ZM146.906 13.324C146.906 13.8147 147.002 14.252 147.194 14.636C147.386 15.0093 147.647 15.3027 147.978 15.516C148.309 15.7293 148.682 15.836 149.098 15.836C149.503 15.836 149.871 15.7293 150.202 15.516C150.533 15.292 150.794 14.9933 150.986 14.62C151.189 14.236 151.29 13.7987 151.29 13.308C151.29 12.828 151.189 12.396 150.986 12.012C150.794 11.628 150.533 11.3293 150.202 11.116C149.871 10.9027 149.503 10.796 149.098 10.796C148.682 10.796 148.309 10.908 147.978 11.132C147.647 11.3453 147.386 11.644 147.194 12.028C147.002 12.4013 146.906 12.8333 146.906 13.324ZM158.017 17.66C157.302 17.66 156.62 17.5427 155.969 17.308C155.318 17.0733 154.758 16.7267 154.289 16.268L155.057 14.876C155.558 15.2813 156.049 15.58 156.529 15.772C157.02 15.964 157.489 16.06 157.937 16.06C158.353 16.06 158.684 15.9853 158.929 15.836C159.185 15.6867 159.313 15.4627 159.313 15.164C159.313 14.9613 159.244 14.8067 159.105 14.7C158.966 14.5827 158.764 14.4813 158.497 14.396C158.241 14.3107 157.926 14.2147 157.553 14.108C156.934 13.9053 156.417 13.708 156.001 13.516C155.585 13.324 155.27 13.084 155.057 12.796C154.854 12.4973 154.753 12.1187 154.753 11.66C154.753 11.1053 154.892 10.6307 155.169 10.236C155.457 9.83067 155.852 9.516 156.353 9.292C156.865 9.068 157.462 8.956 158.145 8.956C158.742 8.956 159.308 9.052 159.841 9.244C160.374 9.42533 160.86 9.724 161.297 10.14L160.433 11.5C160.006 11.1693 159.601 10.9293 159.217 10.78C158.833 10.62 158.444 10.54 158.049 10.54C157.825 10.54 157.612 10.5667 157.409 10.62C157.217 10.6733 157.057 10.764 156.929 10.892C156.812 11.0093 156.753 11.18 156.753 11.404C156.753 11.6067 156.806 11.7667 156.913 11.884C157.03 11.9907 157.201 12.0867 157.425 12.172C157.66 12.2573 157.942 12.3533 158.273 12.46C158.945 12.652 159.51 12.8493 159.969 13.052C160.438 13.2547 160.79 13.5053 161.025 13.804C161.26 14.092 161.377 14.492 161.377 15.004C161.377 15.836 161.073 16.4867 160.465 16.956C159.857 17.4253 159.041 17.66 158.017 17.66Z" fill="#464646"/>
<defs>
<clipPath id="clip0_1_230">
<rect width="24" height="24" fill="white"/>
</clipPath>
</defs>
</svg>
